<mxfile host="app.diagrams.net" modified="2024-01-09T16:37:24.097Z" agent="Mozilla/5.0 (Windows NT 10.0; Win64; x64) AppleWebKit/537.36 (KHTML, like Gecko) Chrome/120.0.0.0 Safari/537.36" etag="n2L_c81poTYnyaoL1LWt" version="22.1.17" type="device">
  <diagram name="Page-1" id="ZdlwazmHDTMSwq7NJnRc">
    <mxGraphModel dx="2368" dy="624" grid="1" gridSize="10" guides="1" tooltips="1" connect="1" arrows="1" fold="1" page="1" pageScale="1" pageWidth="850" pageHeight="1100" math="0" shadow="0">
      <root>
        <mxCell id="0" />
        <mxCell id="1" parent="0" />
        <mxCell id="7Enh9Xf3UbLxr6ZcB4gu-21" value="ACTIVITATI_ONLINE" style="swimlane;fontStyle=0;childLayout=stackLayout;horizontal=1;startSize=30;horizontalStack=0;resizeParent=1;resizeParentMax=0;resizeLast=0;collapsible=1;marginBottom=0;whiteSpace=wrap;html=1;borderstyle=dashed;" vertex="1" parent="1">
          <mxGeometry x="62.5" y="40" width="185" height="120" as="geometry" />
        </mxCell>
        <mxCell id="7Enh9Xf3UbLxr6ZcB4gu-22" value="&lt;b&gt;CNP# &lt;u&gt;[FK]&lt;/u&gt;&amp;nbsp;&lt;/b&gt;&lt;i&gt;VARCHAR(13)&amp;nbsp;&lt;/i&gt;" style="text;strokeColor=none;fillColor=none;align=left;verticalAlign=middle;spacingLeft=4;spacingRight=4;overflow=hidden;points=[[0,0.5],[1,0.5]];portConstraint=eastwest;rotatable=0;whiteSpace=wrap;html=1;" vertex="1" parent="7Enh9Xf3UbLxr6ZcB4gu-21">
          <mxGeometry y="30" width="185" height="30" as="geometry" />
        </mxCell>
        <mxCell id="7Enh9Xf3UbLxr6ZcB4gu-23" value="&lt;b&gt;data_login#&amp;nbsp;&lt;/b&gt;&lt;i&gt;TIMESTAMP&lt;/i&gt;" style="text;strokeColor=none;fillColor=none;align=left;verticalAlign=middle;spacingLeft=4;spacingRight=4;overflow=hidden;points=[[0,0.5],[1,0.5]];portConstraint=eastwest;rotatable=0;whiteSpace=wrap;html=1;" vertex="1" parent="7Enh9Xf3UbLxr6ZcB4gu-21">
          <mxGeometry y="60" width="185" height="30" as="geometry" />
        </mxCell>
        <mxCell id="7Enh9Xf3UbLxr6ZcB4gu-24" value="actvitate &lt;i&gt;ENUM&lt;/i&gt;" style="text;strokeColor=none;fillColor=none;align=left;verticalAlign=middle;spacingLeft=4;spacingRight=4;overflow=hidden;points=[[0,0.5],[1,0.5]];portConstraint=eastwest;rotatable=0;whiteSpace=wrap;html=1;" vertex="1" parent="7Enh9Xf3UbLxr6ZcB4gu-21">
          <mxGeometry y="90" width="185" height="30" as="geometry" />
        </mxCell>
        <mxCell id="7Enh9Xf3UbLxr6ZcB4gu-27" value="CLIENTI" style="swimlane;fontStyle=0;childLayout=stackLayout;horizontal=1;startSize=30;horizontalStack=0;resizeParent=1;resizeParentMax=0;resizeLast=0;collapsible=1;marginBottom=0;whiteSpace=wrap;html=1;" vertex="1" parent="1">
          <mxGeometry x="70" y="360" width="170" height="330" as="geometry" />
        </mxCell>
        <mxCell id="7Enh9Xf3UbLxr6ZcB4gu-28" value="&lt;b&gt;CNP#&amp;nbsp; &lt;/b&gt;&lt;i&gt;VARCHAR(13)&lt;/i&gt;" style="text;strokeColor=none;fillColor=none;align=left;verticalAlign=middle;spacingLeft=4;spacingRight=4;overflow=hidden;points=[[0,0.5],[1,0.5]];portConstraint=eastwest;rotatable=0;whiteSpace=wrap;html=1;" vertex="1" parent="7Enh9Xf3UbLxr6ZcB4gu-27">
          <mxGeometry y="30" width="170" height="30" as="geometry" />
        </mxCell>
        <mxCell id="7Enh9Xf3UbLxr6ZcB4gu-29" value="nume &lt;i&gt;VARCHAR(50) | &lt;/i&gt;NN" style="text;strokeColor=none;fillColor=none;align=left;verticalAlign=middle;spacingLeft=4;spacingRight=4;overflow=hidden;points=[[0,0.5],[1,0.5]];portConstraint=eastwest;rotatable=0;whiteSpace=wrap;html=1;" vertex="1" parent="7Enh9Xf3UbLxr6ZcB4gu-27">
          <mxGeometry y="60" width="170" height="30" as="geometry" />
        </mxCell>
        <mxCell id="7Enh9Xf3UbLxr6ZcB4gu-30" value="prenume &lt;i&gt;VARCHAR(50) | &lt;/i&gt;NN" style="text;strokeColor=none;fillColor=none;align=left;verticalAlign=middle;spacingLeft=4;spacingRight=4;overflow=hidden;points=[[0,0.5],[1,0.5]];portConstraint=eastwest;rotatable=0;whiteSpace=wrap;html=1;" vertex="1" parent="7Enh9Xf3UbLxr6ZcB4gu-27">
          <mxGeometry y="90" width="170" height="30" as="geometry" />
        </mxCell>
        <mxCell id="7Enh9Xf3UbLxr6ZcB4gu-31" value="data_nasterii &lt;i&gt;DATE | &lt;/i&gt;NN" style="text;strokeColor=none;fillColor=none;align=left;verticalAlign=middle;spacingLeft=4;spacingRight=4;overflow=hidden;points=[[0,0.5],[1,0.5]];portConstraint=eastwest;rotatable=0;whiteSpace=wrap;html=1;" vertex="1" parent="7Enh9Xf3UbLxr6ZcB4gu-27">
          <mxGeometry y="120" width="170" height="30" as="geometry" />
        </mxCell>
        <mxCell id="7Enh9Xf3UbLxr6ZcB4gu-32" value="gen &lt;i&gt;ENUM | &lt;/i&gt;NN" style="text;strokeColor=none;fillColor=none;align=left;verticalAlign=middle;spacingLeft=4;spacingRight=4;overflow=hidden;points=[[0,0.5],[1,0.5]];portConstraint=eastwest;rotatable=0;whiteSpace=wrap;html=1;" vertex="1" parent="7Enh9Xf3UbLxr6ZcB4gu-27">
          <mxGeometry y="150" width="170" height="30" as="geometry" />
        </mxCell>
        <mxCell id="7Enh9Xf3UbLxr6ZcB4gu-33" value="email &lt;i&gt;VARCHAR(55)&lt;/i&gt;" style="text;strokeColor=none;fillColor=none;align=left;verticalAlign=middle;spacingLeft=4;spacingRight=4;overflow=hidden;points=[[0,0.5],[1,0.5]];portConstraint=eastwest;rotatable=0;whiteSpace=wrap;html=1;" vertex="1" parent="7Enh9Xf3UbLxr6ZcB4gu-27">
          <mxGeometry y="180" width="170" height="30" as="geometry" />
        </mxCell>
        <mxCell id="7Enh9Xf3UbLxr6ZcB4gu-34" value="nr_tel &lt;i&gt;VARCHAR(15) | &lt;/i&gt;NN" style="text;strokeColor=none;fillColor=none;align=left;verticalAlign=middle;spacingLeft=4;spacingRight=4;overflow=hidden;points=[[0,0.5],[1,0.5]];portConstraint=eastwest;rotatable=0;whiteSpace=wrap;html=1;" vertex="1" parent="7Enh9Xf3UbLxr6ZcB4gu-27">
          <mxGeometry y="210" width="170" height="30" as="geometry" />
        </mxCell>
        <mxCell id="7Enh9Xf3UbLxr6ZcB4gu-35" value="cetatenie &lt;i&gt;ENUM | &lt;/i&gt;NN" style="text;strokeColor=none;fillColor=none;align=left;verticalAlign=middle;spacingLeft=4;spacingRight=4;overflow=hidden;points=[[0,0.5],[1,0.5]];portConstraint=eastwest;rotatable=0;whiteSpace=wrap;html=1;" vertex="1" parent="7Enh9Xf3UbLxr6ZcB4gu-27">
          <mxGeometry y="240" width="170" height="30" as="geometry" />
        </mxCell>
        <mxCell id="7Enh9Xf3UbLxr6ZcB4gu-36" value="id_adresa &lt;u&gt;[FK]&lt;/u&gt;&amp;nbsp;&lt;i&gt;INT | &lt;/i&gt;NN" style="text;strokeColor=none;fillColor=none;align=left;verticalAlign=middle;spacingLeft=4;spacingRight=4;overflow=hidden;points=[[0,0.5],[1,0.5]];portConstraint=eastwest;rotatable=0;whiteSpace=wrap;html=1;" vertex="1" parent="7Enh9Xf3UbLxr6ZcB4gu-27">
          <mxGeometry y="270" width="170" height="30" as="geometry" />
        </mxCell>
        <mxCell id="7Enh9Xf3UbLxr6ZcB4gu-37" value="salariu &lt;i&gt;INT&lt;/i&gt;" style="text;strokeColor=none;fillColor=none;align=left;verticalAlign=middle;spacingLeft=4;spacingRight=4;overflow=hidden;points=[[0,0.5],[1,0.5]];portConstraint=eastwest;rotatable=0;whiteSpace=wrap;html=1;" vertex="1" parent="7Enh9Xf3UbLxr6ZcB4gu-27">
          <mxGeometry y="300" width="170" height="30" as="geometry" />
        </mxCell>
        <mxCell id="7Enh9Xf3UbLxr6ZcB4gu-39" value="ADRESE" style="swimlane;fontStyle=0;childLayout=stackLayout;horizontal=1;startSize=30;horizontalStack=0;resizeParent=1;resizeParentMax=0;resizeLast=0;collapsible=1;marginBottom=0;whiteSpace=wrap;html=1;" vertex="1" parent="1">
          <mxGeometry x="380" y="570" width="160" height="150" as="geometry" />
        </mxCell>
        <mxCell id="7Enh9Xf3UbLxr6ZcB4gu-40" value="&lt;b&gt;id_adresa# &lt;/b&gt;&lt;i&gt;INT&amp;nbsp;&lt;/i&gt;" style="text;strokeColor=none;fillColor=none;align=left;verticalAlign=middle;spacingLeft=4;spacingRight=4;overflow=hidden;points=[[0,0.5],[1,0.5]];portConstraint=eastwest;rotatable=0;whiteSpace=wrap;html=1;" vertex="1" parent="7Enh9Xf3UbLxr6ZcB4gu-39">
          <mxGeometry y="30" width="160" height="30" as="geometry" />
        </mxCell>
        <mxCell id="7Enh9Xf3UbLxr6ZcB4gu-41" value="strada &lt;i&gt;VARCHAR(40) | &lt;/i&gt;NN" style="text;strokeColor=none;fillColor=none;align=left;verticalAlign=middle;spacingLeft=4;spacingRight=4;overflow=hidden;points=[[0,0.5],[1,0.5]];portConstraint=eastwest;rotatable=0;whiteSpace=wrap;html=1;" vertex="1" parent="7Enh9Xf3UbLxr6ZcB4gu-39">
          <mxGeometry y="60" width="160" height="30" as="geometry" />
        </mxCell>
        <mxCell id="7Enh9Xf3UbLxr6ZcB4gu-42" value="oras &lt;i&gt;VARCHAR(30) | &lt;/i&gt;NN" style="text;strokeColor=none;fillColor=none;align=left;verticalAlign=middle;spacingLeft=4;spacingRight=4;overflow=hidden;points=[[0,0.5],[1,0.5]];portConstraint=eastwest;rotatable=0;whiteSpace=wrap;html=1;" vertex="1" parent="7Enh9Xf3UbLxr6ZcB4gu-39">
          <mxGeometry y="90" width="160" height="30" as="geometry" />
        </mxCell>
        <mxCell id="7Enh9Xf3UbLxr6ZcB4gu-43" value="tara &lt;i&gt;ENUM | &lt;/i&gt;NN" style="text;strokeColor=none;fillColor=none;align=left;verticalAlign=middle;spacingLeft=4;spacingRight=4;overflow=hidden;points=[[0,0.5],[1,0.5]];portConstraint=eastwest;rotatable=0;whiteSpace=wrap;html=1;" vertex="1" parent="7Enh9Xf3UbLxr6ZcB4gu-39">
          <mxGeometry y="120" width="160" height="30" as="geometry" />
        </mxCell>
        <mxCell id="7Enh9Xf3UbLxr6ZcB4gu-44" value="CONTURI" style="swimlane;fontStyle=0;childLayout=stackLayout;horizontal=1;startSize=30;horizontalStack=0;resizeParent=1;resizeParentMax=0;resizeLast=0;collapsible=1;marginBottom=0;whiteSpace=wrap;html=1;" vertex="1" parent="1">
          <mxGeometry x="380" y="360" width="190" height="120" as="geometry" />
        </mxCell>
        <mxCell id="7Enh9Xf3UbLxr6ZcB4gu-45" value="&lt;b&gt;IBAN# &lt;/b&gt;&lt;i&gt;VARCHAR(34)&lt;/i&gt;" style="text;strokeColor=none;fillColor=none;align=left;verticalAlign=middle;spacingLeft=4;spacingRight=4;overflow=hidden;points=[[0,0.5],[1,0.5]];portConstraint=eastwest;rotatable=0;whiteSpace=wrap;html=1;" vertex="1" parent="7Enh9Xf3UbLxr6ZcB4gu-44">
          <mxGeometry y="30" width="190" height="30" as="geometry" />
        </mxCell>
        <mxCell id="7Enh9Xf3UbLxr6ZcB4gu-46" value="moneda_cont &lt;i&gt;VARCHAR(3) | &lt;/i&gt;NN" style="text;strokeColor=none;fillColor=none;align=left;verticalAlign=middle;spacingLeft=4;spacingRight=4;overflow=hidden;points=[[0,0.5],[1,0.5]];portConstraint=eastwest;rotatable=0;whiteSpace=wrap;html=1;" vertex="1" parent="7Enh9Xf3UbLxr6ZcB4gu-44">
          <mxGeometry y="60" width="190" height="30" as="geometry" />
        </mxCell>
        <mxCell id="7Enh9Xf3UbLxr6ZcB4gu-47" value="CNP &lt;u&gt;[FK]&lt;/u&gt;&amp;nbsp;&lt;i&gt;VARCHAR(13) | &lt;/i&gt;NN" style="text;strokeColor=none;fillColor=none;align=left;verticalAlign=middle;spacingLeft=4;spacingRight=4;overflow=hidden;points=[[0,0.5],[1,0.5]];portConstraint=eastwest;rotatable=0;whiteSpace=wrap;html=1;" vertex="1" parent="7Enh9Xf3UbLxr6ZcB4gu-44">
          <mxGeometry y="90" width="190" height="30" as="geometry" />
        </mxCell>
        <mxCell id="7Enh9Xf3UbLxr6ZcB4gu-49" value="TRANZACTII" style="swimlane;fontStyle=0;childLayout=stackLayout;horizontal=1;startSize=30;horizontalStack=0;resizeParent=1;resizeParentMax=0;resizeLast=0;collapsible=1;marginBottom=0;whiteSpace=wrap;html=1;" vertex="1" parent="1">
          <mxGeometry x="362.5" y="20" width="227.5" height="210" as="geometry" />
        </mxCell>
        <mxCell id="7Enh9Xf3UbLxr6ZcB4gu-50" value="&lt;b&gt;id_tranzactie# &lt;/b&gt;&lt;i style=&quot;&quot;&gt;INT&lt;/i&gt;" style="text;strokeColor=none;fillColor=none;align=left;verticalAlign=middle;spacingLeft=4;spacingRight=4;overflow=hidden;points=[[0,0.5],[1,0.5]];portConstraint=eastwest;rotatable=0;whiteSpace=wrap;html=1;" vertex="1" parent="7Enh9Xf3UbLxr6ZcB4gu-49">
          <mxGeometry y="30" width="227.5" height="30" as="geometry" />
        </mxCell>
        <mxCell id="7Enh9Xf3UbLxr6ZcB4gu-51" value="iban_expeditor &lt;u&gt;[FK]&lt;/u&gt;&amp;nbsp;&lt;i&gt;VARCHAR(34) | &lt;/i&gt;NN" style="text;strokeColor=none;fillColor=none;align=left;verticalAlign=middle;spacingLeft=4;spacingRight=4;overflow=hidden;points=[[0,0.5],[1,0.5]];portConstraint=eastwest;rotatable=0;whiteSpace=wrap;html=1;" vertex="1" parent="7Enh9Xf3UbLxr6ZcB4gu-49">
          <mxGeometry y="60" width="227.5" height="30" as="geometry" />
        </mxCell>
        <mxCell id="7Enh9Xf3UbLxr6ZcB4gu-52" value="iban_destinatar &lt;u&gt;[FK]&lt;/u&gt;&amp;nbsp;&lt;i&gt;VARCHAR(34) | &lt;/i&gt;NN" style="text;strokeColor=none;fillColor=none;align=left;verticalAlign=middle;spacingLeft=4;spacingRight=4;overflow=hidden;points=[[0,0.5],[1,0.5]];portConstraint=eastwest;rotatable=0;whiteSpace=wrap;html=1;" vertex="1" parent="7Enh9Xf3UbLxr6ZcB4gu-49">
          <mxGeometry y="90" width="227.5" height="30" as="geometry" />
        </mxCell>
        <mxCell id="7Enh9Xf3UbLxr6ZcB4gu-53" value="data_transfer &lt;i&gt;TIMESTAMP | &lt;/i&gt;NN" style="text;strokeColor=none;fillColor=none;align=left;verticalAlign=middle;spacingLeft=4;spacingRight=4;overflow=hidden;points=[[0,0.5],[1,0.5]];portConstraint=eastwest;rotatable=0;whiteSpace=wrap;html=1;" vertex="1" parent="7Enh9Xf3UbLxr6ZcB4gu-49">
          <mxGeometry y="120" width="227.5" height="30" as="geometry" />
        </mxCell>
        <mxCell id="7Enh9Xf3UbLxr6ZcB4gu-54" value="cantitate &lt;i&gt;INT | &lt;/i&gt;NN" style="text;strokeColor=none;fillColor=none;align=left;verticalAlign=middle;spacingLeft=4;spacingRight=4;overflow=hidden;points=[[0,0.5],[1,0.5]];portConstraint=eastwest;rotatable=0;whiteSpace=wrap;html=1;" vertex="1" parent="7Enh9Xf3UbLxr6ZcB4gu-49">
          <mxGeometry y="150" width="227.5" height="30" as="geometry" />
        </mxCell>
        <mxCell id="7Enh9Xf3UbLxr6ZcB4gu-55" value="moneda_transfer &lt;i&gt;VARCHAR(3) | &lt;/i&gt;NN" style="text;strokeColor=none;fillColor=none;align=left;verticalAlign=middle;spacingLeft=4;spacingRight=4;overflow=hidden;points=[[0,0.5],[1,0.5]];portConstraint=eastwest;rotatable=0;whiteSpace=wrap;html=1;" vertex="1" parent="7Enh9Xf3UbLxr6ZcB4gu-49">
          <mxGeometry y="180" width="227.5" height="30" as="geometry" />
        </mxCell>
        <mxCell id="7Enh9Xf3UbLxr6ZcB4gu-56" value="CARDURI" style="swimlane;fontStyle=0;childLayout=stackLayout;horizontal=1;startSize=30;horizontalStack=0;resizeParent=1;resizeParentMax=0;resizeLast=0;collapsible=1;marginBottom=0;whiteSpace=wrap;html=1;" vertex="1" parent="1">
          <mxGeometry x="655" y="360" width="180" height="180" as="geometry" />
        </mxCell>
        <mxCell id="7Enh9Xf3UbLxr6ZcB4gu-57" value="&lt;b&gt;id_card# &lt;/b&gt;&lt;i style=&quot;&quot;&gt;INT&lt;/i&gt;" style="text;strokeColor=none;fillColor=none;align=left;verticalAlign=middle;spacingLeft=4;spacingRight=4;overflow=hidden;points=[[0,0.5],[1,0.5]];portConstraint=eastwest;rotatable=0;whiteSpace=wrap;html=1;" vertex="1" parent="7Enh9Xf3UbLxr6ZcB4gu-56">
          <mxGeometry y="30" width="180" height="30" as="geometry" />
        </mxCell>
        <mxCell id="7Enh9Xf3UbLxr6ZcB4gu-58" value="id_oferta &lt;u&gt;[FK]&lt;/u&gt;&amp;nbsp;&lt;i&gt;INT | &lt;/i&gt;NN" style="text;strokeColor=none;fillColor=none;align=left;verticalAlign=middle;spacingLeft=4;spacingRight=4;overflow=hidden;points=[[0,0.5],[1,0.5]];portConstraint=eastwest;rotatable=0;whiteSpace=wrap;html=1;" vertex="1" parent="7Enh9Xf3UbLxr6ZcB4gu-56">
          <mxGeometry y="60" width="180" height="30" as="geometry" />
        </mxCell>
        <mxCell id="7Enh9Xf3UbLxr6ZcB4gu-59" value="cod_card &lt;i&gt;VARCHAR(16) | &lt;/i&gt;NN" style="text;strokeColor=none;fillColor=none;align=left;verticalAlign=middle;spacingLeft=4;spacingRight=4;overflow=hidden;points=[[0,0.5],[1,0.5]];portConstraint=eastwest;rotatable=0;whiteSpace=wrap;html=1;" vertex="1" parent="7Enh9Xf3UbLxr6ZcB4gu-56">
          <mxGeometry y="90" width="180" height="30" as="geometry" />
        </mxCell>
        <mxCell id="7Enh9Xf3UbLxr6ZcB4gu-60" value="tip_card &lt;i&gt;ENUM | &lt;/i&gt;NN" style="text;strokeColor=none;fillColor=none;align=left;verticalAlign=middle;spacingLeft=4;spacingRight=4;overflow=hidden;points=[[0,0.5],[1,0.5]];portConstraint=eastwest;rotatable=0;whiteSpace=wrap;html=1;" vertex="1" parent="7Enh9Xf3UbLxr6ZcB4gu-56">
          <mxGeometry y="120" width="180" height="30" as="geometry" />
        </mxCell>
        <mxCell id="7Enh9Xf3UbLxr6ZcB4gu-61" value="IBAN &lt;u&gt;[FK]&lt;/u&gt;&amp;nbsp;&lt;i&gt;VARCHAR(34) | &lt;/i&gt;NN" style="text;strokeColor=none;fillColor=none;align=left;verticalAlign=middle;spacingLeft=4;spacingRight=4;overflow=hidden;points=[[0,0.5],[1,0.5]];portConstraint=eastwest;rotatable=0;whiteSpace=wrap;html=1;" vertex="1" parent="7Enh9Xf3UbLxr6ZcB4gu-56">
          <mxGeometry y="150" width="180" height="30" as="geometry" />
        </mxCell>
        <mxCell id="7Enh9Xf3UbLxr6ZcB4gu-62" value="OFERTE" style="swimlane;fontStyle=0;childLayout=stackLayout;horizontal=1;startSize=30;horizontalStack=0;resizeParent=1;resizeParentMax=0;resizeLast=0;collapsible=1;marginBottom=0;whiteSpace=wrap;html=1;" vertex="1" parent="1">
          <mxGeometry x="650" y="50" width="190" height="120" as="geometry" />
        </mxCell>
        <mxCell id="7Enh9Xf3UbLxr6ZcB4gu-63" value="&lt;b&gt;id_oferta# &lt;/b&gt;&lt;i&gt;INT&lt;/i&gt;" style="text;strokeColor=none;fillColor=none;align=left;verticalAlign=middle;spacingLeft=4;spacingRight=4;overflow=hidden;points=[[0,0.5],[1,0.5]];portConstraint=eastwest;rotatable=0;whiteSpace=wrap;html=1;" vertex="1" parent="7Enh9Xf3UbLxr6ZcB4gu-62">
          <mxGeometry y="30" width="190" height="30" as="geometry" />
        </mxCell>
        <mxCell id="7Enh9Xf3UbLxr6ZcB4gu-64" value="nume_oferta &lt;i&gt;VARCHAR(30) | &lt;/i&gt;NN" style="text;strokeColor=none;fillColor=none;align=left;verticalAlign=middle;spacingLeft=4;spacingRight=4;overflow=hidden;points=[[0,0.5],[1,0.5]];portConstraint=eastwest;rotatable=0;whiteSpace=wrap;html=1;" vertex="1" parent="7Enh9Xf3UbLxr6ZcB4gu-62">
          <mxGeometry y="60" width="190" height="30" as="geometry" />
        </mxCell>
        <mxCell id="7Enh9Xf3UbLxr6ZcB4gu-65" value="rata_dobanda &lt;i&gt;DECIMAL(4, 2)&lt;/i&gt;" style="text;strokeColor=none;fillColor=none;align=left;verticalAlign=middle;spacingLeft=4;spacingRight=4;overflow=hidden;points=[[0,0.5],[1,0.5]];portConstraint=eastwest;rotatable=0;whiteSpace=wrap;html=1;" vertex="1" parent="7Enh9Xf3UbLxr6ZcB4gu-62">
          <mxGeometry y="90" width="190" height="30" as="geometry" />
        </mxCell>
        <mxCell id="7Enh9Xf3UbLxr6ZcB4gu-66" value="" style="endArrow=none;html=1;rounded=0;exitX=0.5;exitY=0;exitDx=0;exitDy=0;entryX=0.5;entryY=1;entryDx=0;entryDy=0;" edge="1" parent="1" source="7Enh9Xf3UbLxr6ZcB4gu-27" target="7Enh9Xf3UbLxr6ZcB4gu-21">
          <mxGeometry width="50" height="50" relative="1" as="geometry">
            <mxPoint x="590" y="390" as="sourcePoint" />
            <mxPoint x="140" y="250" as="targetPoint" />
          </mxGeometry>
        </mxCell>
        <mxCell id="7Enh9Xf3UbLxr6ZcB4gu-67" value="" style="endArrow=none;html=1;rounded=0;exitX=1;exitY=0.5;exitDx=0;exitDy=0;entryX=0;entryY=0.5;entryDx=0;entryDy=0;" edge="1" parent="1" source="7Enh9Xf3UbLxr6ZcB4gu-29" target="7Enh9Xf3UbLxr6ZcB4gu-46">
          <mxGeometry width="50" height="50" relative="1" as="geometry">
            <mxPoint x="470" y="430" as="sourcePoint" />
            <mxPoint x="520" y="380" as="targetPoint" />
          </mxGeometry>
        </mxCell>
        <mxCell id="7Enh9Xf3UbLxr6ZcB4gu-68" value="" style="endArrow=none;html=1;rounded=0;exitX=0;exitY=0.5;exitDx=0;exitDy=0;entryX=1;entryY=0.5;entryDx=0;entryDy=0;" edge="1" parent="1" source="7Enh9Xf3UbLxr6ZcB4gu-40" target="7Enh9Xf3UbLxr6ZcB4gu-35">
          <mxGeometry width="50" height="50" relative="1" as="geometry">
            <mxPoint x="470" y="530" as="sourcePoint" />
            <mxPoint x="520" y="480" as="targetPoint" />
          </mxGeometry>
        </mxCell>
        <mxCell id="7Enh9Xf3UbLxr6ZcB4gu-71" value="" style="endArrow=none;html=1;rounded=0;exitX=0.5;exitY=0;exitDx=0;exitDy=0;entryX=0.501;entryY=1.006;entryDx=0;entryDy=0;entryPerimeter=0;" edge="1" parent="1" source="7Enh9Xf3UbLxr6ZcB4gu-44" target="7Enh9Xf3UbLxr6ZcB4gu-55">
          <mxGeometry width="50" height="50" relative="1" as="geometry">
            <mxPoint x="470" y="230" as="sourcePoint" />
            <mxPoint x="520" y="180" as="targetPoint" />
          </mxGeometry>
        </mxCell>
        <mxCell id="7Enh9Xf3UbLxr6ZcB4gu-72" value="" style="endArrow=none;html=1;rounded=0;exitX=1;exitY=0.5;exitDx=0;exitDy=0;entryX=0;entryY=0.5;entryDx=0;entryDy=0;" edge="1" parent="1" source="7Enh9Xf3UbLxr6ZcB4gu-46" target="7Enh9Xf3UbLxr6ZcB4gu-58">
          <mxGeometry width="50" height="50" relative="1" as="geometry">
            <mxPoint x="610" y="370" as="sourcePoint" />
            <mxPoint x="660" y="320" as="targetPoint" />
          </mxGeometry>
        </mxCell>
        <mxCell id="7Enh9Xf3UbLxr6ZcB4gu-73" value="" style="endArrow=none;html=1;rounded=0;entryX=0.503;entryY=1.029;entryDx=0;entryDy=0;entryPerimeter=0;exitX=0.5;exitY=0;exitDx=0;exitDy=0;" edge="1" parent="1" source="7Enh9Xf3UbLxr6ZcB4gu-56" target="7Enh9Xf3UbLxr6ZcB4gu-65">
          <mxGeometry width="50" height="50" relative="1" as="geometry">
            <mxPoint x="610" y="370" as="sourcePoint" />
            <mxPoint x="660" y="320" as="targetPoint" />
          </mxGeometry>
        </mxCell>
        <mxCell id="7Enh9Xf3UbLxr6ZcB4gu-106" value=".&amp;nbsp; &amp;nbsp; &amp;nbsp; &amp;nbsp; &amp;nbsp; &amp;nbsp; &amp;nbsp; &amp;nbsp; &amp;nbsp; &amp;nbsp; &amp;nbsp; &amp;nbsp; &amp;nbsp; &amp;nbsp; &amp;nbsp; &amp;nbsp; &amp;nbsp; &amp;nbsp; &amp;nbsp; &amp;nbsp; &amp;nbsp; &amp;nbsp; &amp;nbsp; &amp;nbsp; &amp;nbsp;" style="text;html=1;strokeColor=none;fillColor=none;align=center;verticalAlign=middle;whiteSpace=wrap;rounded=0;" vertex="1" parent="1">
          <mxGeometry x="-35" y="320" width="270" height="30" as="geometry" />
        </mxCell>
      </root>
    </mxGraphModel>
  </diagram>
</mxfile>
